<?xml version="1.0" encoding="UTF-8" standalone="no"?>
<!DOCTYPE svg PUBLIC "-//W3C//DTD SVG 1.1//EN" "http://www.w3.org/Graphics/SVG/1.1/DTD/svg11.dtd">
<svg width="100%" height="100%" viewBox="0 0 407 406" version="1.1" xmlns="http://www.w3.org/2000/svg" xmlns:xlink="http://www.w3.org/1999/xlink" xml:space="preserve" xmlns:serif="http://www.serif.com/" style="fill-rule:evenodd;clip-rule:evenodd;stroke-linejoin:round;stroke-miterlimit:2;">
    <g transform="matrix(4.16667,0,0,4.16667,-537,0)">
        <path d="M177.704,0C204.585,0 226.383,21.799 226.383,48.679C226.383,75.559 204.585,97.358 177.704,97.358C150.824,97.358 129.025,75.559 129.025,48.679C129.025,21.799 150.824,0 177.704,0Z" style="fill:rgb(144,202,249);fill-rule:nonzero;"/>
    </g>
    <g transform="matrix(4.16667,0,0,4.16667,-537,0)">
        <path d="M177.704,0L177.704,97.358C150.824,97.357 129.025,75.559 129.025,48.679C129.025,21.799 150.824,0 177.704,0Z" style="fill:rgb(97,181,246);fill-rule:nonzero;"/>
    </g>
    <g transform="matrix(4.16667,0,0,4.16667,-537,0)">
        <path d="M139.417,71.973C138.688,73.423 138.142,74.959 137.793,76.544C146.594,89.126 161.189,97.358 177.705,97.358C194.22,97.358 208.814,89.126 217.616,76.545C217.266,74.959 216.72,73.423 215.99,71.973C209.457,59.094 192.263,61.222 190.038,57.915C188.311,55.347 189.339,47.453 189.225,45.423C181.177,46.192 174.311,46.024 166.264,45.254C166.151,47.285 167.096,55.347 165.369,57.915C163.144,61.222 145.953,59.094 139.417,71.973Z" style="fill:rgb(242,192,153);fill-rule:nonzero;"/>
    </g>
    <g transform="matrix(4.16667,0,0,4.16667,-537,0)">
        <path d="M139.417,71.973C138.688,73.423 138.142,74.959 137.793,76.544C146.594,89.126 161.189,97.358 177.705,97.358C194.22,97.358 208.814,89.126 217.616,76.545C217.266,74.959 216.72,73.423 215.99,71.973C211.022,62.18 199.892,61.064 193.864,59.639C192.297,64.811 185.901,68.684 178.25,68.684C170.472,68.684 163.99,64.679 162.56,59.379C156.859,60.964 144.681,61.598 139.417,71.973Z" style="fill:rgb(224,225,227);fill-rule:nonzero;"/>
    </g>
    <g transform="matrix(4.16667,0,0,4.16667,-537,0)">
        <path d="M139.417,71.973C138.688,73.423 138.142,74.959 137.793,76.544C143.39,84.55 151.262,90.695 160.386,94.181C158.312,83.333 156.561,71.984 155.558,60.956C149.789,62.362 143.001,64.911 139.417,71.973Z" style="fill:rgb(98,57,44);fill-rule:nonzero;"/>
    </g>
    <g transform="matrix(4.16667,0,0,4.16667,-537,0)">
        <path d="M183.497,97.014L181.989,75.452L187.475,68.684L183.012,66.522C181.451,66.887 179.853,67.07 178.25,67.068C176.326,67.068 174.482,66.809 172.773,66.338L167.933,68.684L173.447,75.452L171.917,97.014C173.815,97.239 175.746,97.358 177.705,97.358C179.665,97.358 181.597,97.239 183.497,97.014Z" style="fill:rgb(70,135,141);fill-rule:nonzero;"/>
    </g>
    <g transform="matrix(4.16667,0,0,4.16667,-537,0)">
        <path d="M165.569,56.949L177.722,67.139L169.768,76.768L157.078,60.496L165.569,56.949Z" style="fill:rgb(237,237,238);fill-rule:nonzero;"/>
    </g>
    <g transform="matrix(4.16667,0,0,4.16667,-537,0)">
        <path d="M189.839,56.949L177.686,67.139L185.641,76.768L198.33,60.496L189.839,56.949Z" style="fill:rgb(247,247,247);fill-rule:nonzero;"/>
    </g>
    <g transform="matrix(4.16667,0,0,4.16667,-537,0)">
        <path d="M158.937,58.952C159.835,71.005 161.819,83.627 164.176,95.449C160.02,94.248 156.044,92.495 152.353,90.238L147.662,76.965L152.688,70.882L148.694,67.418L150.811,62.386L158.937,58.952Z" style="fill:rgb(147,82,58);fill-rule:nonzero;"/>
    </g>
    <g transform="matrix(4.16667,0,0,4.16667,-537,0)">
        <path d="M215.99,71.973C216.72,73.424 217.266,74.959 217.616,76.545C212.019,84.55 204.147,90.695 195.022,94.182C197.096,83.333 198.847,71.984 199.85,60.956C205.618,62.362 212.406,64.911 215.99,71.973Z" style="fill:rgb(98,57,44);fill-rule:nonzero;"/>
    </g>
    <g transform="matrix(4.16667,0,0,4.16667,-537,0)">
        <path d="M196.472,58.952C195.572,71.005 193.589,83.627 191.233,95.449C195.389,94.248 199.365,92.496 203.055,90.239L207.748,76.965L202.72,70.882L206.715,67.418L204.597,62.386L196.472,58.952Z" style="fill:rgb(147,82,58);fill-rule:nonzero;"/>
    </g>
    <g transform="matrix(4.16667,0,0,4.16667,-537,0)">
        <path d="M171.334,54.871C169.022,53.412 167.305,51.211 166.048,48.562C165.143,46.65 164.476,44.509 163.998,42.246C163.712,42.182 163.402,42.016 163.112,41.808C162.406,41.297 161.924,40.631 161.522,39.841C160.427,37.698 159.934,34.685 161.056,33.29C161.541,32.689 162.241,32.521 162.957,32.621C162.938,31.928 162.928,31.236 162.928,30.543C162.928,26.546 162.941,21.641 164.297,18.842C165.289,16.796 166.791,15.456 168.571,14.465C175.386,10.671 180.177,10.671 186.995,14.465C188.773,15.456 190.275,16.796 191.267,18.842C192.623,21.641 192.636,26.546 192.636,30.543C192.636,31.233 192.627,31.926 192.607,32.621C193.322,32.521 194.023,32.689 194.508,33.29C195.629,34.685 195.137,37.698 194.042,39.841C193.641,40.631 193.159,41.297 192.45,41.808C192.162,42.016 191.853,42.182 191.567,42.246C191.087,44.509 190.421,46.65 189.516,48.562C188.261,51.211 186.543,53.412 184.23,54.871C180.6,57.16 174.965,57.16 171.334,54.871Z" style="fill:rgb(253,209,167);fill-rule:nonzero;"/>
    </g>
    <g transform="matrix(4.16667,0,0,4.16667,-537,0)">
        <path d="M181.157,7.583C183.08,7.529 184.808,8.012 186.389,8.823C188.422,9.867 190.211,11.455 191.858,13.147C192.46,13.765 192.875,14.293 193.151,14.826C193.613,15.712 193.694,16.611 193.627,17.962C193.587,18.811 193.769,19.047 194.178,19.773C194.379,20.13 194.498,20.576 194.366,21.672C194.233,22.778 194.088,23.297 194.513,24.382C194.698,24.856 194.912,25.332 195.056,25.775C195.278,26.465 195.472,27.173 195.524,27.982C195.639,29.725 194.738,31.836 194.018,32.555C191.946,34.625 192.611,36.934 191.773,39.244C191.534,37.187 191.856,31.823 190.939,28.945C190.176,26.554 189.716,23.905 188.232,22.023C187.454,21.038 186.395,20.261 184.867,19.842C181.821,19.008 180.316,20.461 177.962,20.461C175.609,20.461 174.104,19.008 171.058,19.842C169.53,20.261 168.471,21.038 167.693,22.023C166.209,23.905 165.749,26.554 164.986,28.945C164.069,31.823 164.391,37.187 164.151,39.244C163.314,36.934 163.979,34.625 161.907,32.555C161.187,31.836 160.286,29.725 160.4,27.982C160.453,27.173 160.647,26.465 160.869,25.775C161.013,25.332 161.227,24.856 161.412,24.382C161.836,23.297 161.692,22.778 161.559,21.672C161.427,20.576 161.545,20.13 161.747,19.773C162.156,19.047 162.337,18.811 162.297,17.962C162.231,16.611 162.312,15.712 162.773,14.826C163.05,14.293 163.465,13.765 164.067,13.147C165.713,11.455 167.503,9.867 169.536,8.823C171.116,8.012 172.845,7.529 174.768,7.583C177.176,7.646 178.749,7.646 181.157,7.583Z" style="fill:rgb(115,82,56);fill-rule:nonzero;"/>
    </g>
    <g transform="matrix(4.16667,0,0,4.16667,-537,0)">
        <path d="M191.87,38.454C191.554,38.915 191.683,39.615 191.791,40.215C192.075,41.816 190.696,44.855 189.501,45.884C188.472,46.772 187.163,46.879 186.976,46.811C186.847,47.127 186.436,47.943 186.307,48.259C186.089,48.794 185.704,49.383 185.205,49.955C183.929,51.417 183.033,52.567 181.098,52.717C180.139,52.791 179.465,51.974 178.981,51.166C178.603,50.54 178.338,49.916 178.143,49.726C177.477,49.073 176.396,49.989 175.742,50.832C175.114,51.646 174.536,52.314 173.819,52.591C172.903,52.943 171.803,52.588 170.97,51.938C170.321,51.432 169.834,50.748 169.722,50.079C169.511,48.828 168.499,47.493 168.605,47.23C167.045,48.575 165.946,46.879 165.285,44.983C164.436,42.545 164.208,38.938 164.272,38.038C164.385,36.487 163.765,38.261 163.414,39.891C163.163,41.052 163.242,42.029 163.446,42.998C163.65,43.967 163.978,44.923 164.224,46.047C164.421,46.94 164.411,47.791 164.432,48.507C164.463,49.61 164.828,51.179 165.48,52.585C166.317,54.394 167.008,55.482 168.701,55.418C169.102,55.403 169.831,57.352 170.257,57.828C171.022,58.684 171.4,58.468 171.82,58.199C173.27,57.272 173.406,59.226 174.309,59.337C176.059,59.552 176.209,58.565 177.278,58.644C178.279,58.721 178.372,59.771 180.06,59.595C181.102,59.484 181.455,58.381 181.923,58.552C182.032,58.591 182.856,58.899 183.284,58.666C183.995,58.273 184.427,57.23 184.598,57.199C185.438,57.033 186.249,57.093 186.739,56.904C188.21,56.33 188.223,55.305 188.894,53.66C189.754,51.556 188.817,52.651 190.051,51.161C190.628,50.466 190.969,49.497 191.206,48.467C191.601,46.753 191.708,44.873 192.137,43.82C192.399,43.18 192.45,42.113 192.319,41.113C192.127,39.649 191.664,38.306 191.87,38.454Z" style="fill:rgb(115,82,56);fill-rule:nonzero;"/>
    </g>
    <g transform="matrix(4.16667,0,0,4.16667,-537,0)">
        <path d="M176.165,43.253C175.742,43.253 175.37,43.293 174.848,43.512C173.785,43.952 173.004,44.836 172.001,45.426C171.424,45.763 170.717,45.845 169.985,45.863C169.268,45.881 168.797,46.502 168.687,47.316C168.67,47.438 169.009,47.195 169.322,47.024C169.823,46.745 170.06,47.045 170.58,47.188C171.464,47.424 172.498,47.488 173.061,47.488C174.178,47.488 174.903,47.34 175.909,47.045C176.38,46.909 177.139,46.384 177.676,45.768C177.758,45.676 177.83,45.584 177.893,45.492C177.956,45.584 178.029,45.676 178.11,45.768C178.647,46.384 179.407,46.909 179.878,47.045C180.883,47.34 181.609,47.488 182.726,47.488C183.29,47.488 184.322,47.424 185.208,47.188C185.728,47.045 185.963,46.745 186.466,47.024C186.777,47.195 187.118,47.438 187.101,47.316C186.989,46.502 186.519,45.881 185.801,45.863C185.07,45.845 184.362,45.763 183.787,45.426C182.782,44.836 182.001,43.952 180.939,43.512C180.524,43.33 180.075,43.242 179.622,43.253C178.883,43.252 178.258,43.451 177.893,43.796C177.529,43.451 176.904,43.252 176.165,43.253Z" style="fill:rgb(115,82,56);fill-rule:nonzero;"/>
    </g>
    <g transform="matrix(4.16667,0,0,4.16667,-537,0)">
        <path d="M139.417,71.973C138.688,73.423 138.142,74.959 137.793,76.544C146.594,89.126 161.189,97.357 177.704,97.358L177.704,45.916C173.989,45.872 170.273,45.638 166.264,45.254C166.151,47.285 167.096,55.347 165.369,57.915C163.144,61.222 145.953,59.094 139.417,71.973Z" style="fill:rgb(228,169,132);fill-rule:nonzero;"/>
    </g>
    <g transform="matrix(4.16667,0,0,4.16667,-537,0)">
        <path d="M139.417,71.973C138.688,73.423 138.142,74.959 137.793,76.544C146.594,89.126 161.189,97.357 177.704,97.358L177.704,68.677C170.17,68.495 163.956,64.555 162.56,59.379C156.859,60.964 144.681,61.598 139.417,71.973Z" style="fill:rgb(212,212,213);fill-rule:nonzero;"/>
    </g>
    <g transform="matrix(4.16667,0,0,4.16667,-537,0)">
        <path d="M139.417,71.973C138.688,73.423 138.142,74.959 137.793,76.544C143.39,84.55 151.262,90.695 160.386,94.181C158.312,83.333 156.561,71.984 155.558,60.956C149.789,62.362 143.001,64.911 139.417,71.973Z" style="fill:rgb(92,52,45);fill-rule:nonzero;"/>
    </g>
    <g transform="matrix(4.16667,0,0,4.16667,-537,0)">
        <path d="M177.704,67.061C176.037,67.021 174.381,66.778 172.773,66.338L167.933,68.684L173.447,75.452L171.917,97.014C173.814,97.239 175.745,97.358 177.704,97.358L177.704,67.061Z" style="fill:rgb(42,108,117);fill-rule:nonzero;"/>
    </g>
    <g transform="matrix(4.16667,0,0,4.16667,-537,0)">
        <path d="M165.569,56.949L177.704,67.124L177.704,67.161L169.768,76.768L157.078,60.496L165.569,56.949Z" style="fill:rgb(237,237,238);fill-rule:nonzero;"/>
    </g>
    <g transform="matrix(4.16667,0,0,4.16667,-537,0)">
        <path d="M177.704,67.124L177.686,67.139L177.704,67.16L177.704,67.124Z" style="fill:rgb(237,237,238);fill-rule:nonzero;"/>
    </g>
    <g transform="matrix(4.16667,0,0,4.16667,-537,0)">
        <path d="M158.937,58.952C159.835,71.005 161.819,83.627 164.176,95.449C160.02,94.248 156.044,92.495 152.353,90.238L147.662,76.965L152.688,70.882L148.694,67.418L150.811,62.386L158.937,58.952Z" style="fill:rgb(132,68,50);fill-rule:nonzero;"/>
    </g>
    <g transform="matrix(4.16667,0,0,4.16667,-537,0)">
        <path d="M171.334,54.871C169.022,53.412 167.305,51.211 166.048,48.562C165.143,46.65 164.476,44.509 163.998,42.246C163.712,42.182 163.402,42.016 163.112,41.808C162.406,41.297 161.924,40.631 161.522,39.841C160.427,37.698 159.934,34.685 161.056,33.29C161.541,32.689 162.241,32.521 162.957,32.621C162.938,31.928 162.928,31.236 162.928,30.543C162.928,26.546 162.941,21.641 164.297,18.842C165.289,16.796 166.791,15.456 168.571,14.465C171.948,12.585 174.828,11.638 177.704,11.621L177.704,56.586C175.414,56.574 173.129,56.002 171.334,54.871Z" style="fill:rgb(228,169,132);fill-rule:nonzero;"/>
    </g>
    <g transform="matrix(4.16667,0,0,4.16667,-537,0)">
        <path d="M177.704,20.455C175.496,20.356 173.99,19.04 171.058,19.842C169.53,20.261 168.471,21.038 167.693,22.023C166.209,23.905 165.749,26.554 164.986,28.945C164.069,31.823 164.391,37.187 164.151,39.244C163.314,36.934 163.979,34.625 161.907,32.555C161.187,31.836 160.286,29.725 160.4,27.982C160.453,27.173 160.647,26.465 160.869,25.775C161.013,25.332 161.227,24.856 161.412,24.382C161.836,23.297 161.692,22.778 161.559,21.672C161.427,20.576 161.545,20.13 161.747,19.773C162.156,19.047 162.337,18.811 162.297,17.962C162.231,16.611 162.312,15.712 162.773,14.826C163.05,14.293 163.465,13.765 164.067,13.147C165.713,11.455 167.503,9.867 169.536,8.823C171.116,8.012 172.845,7.529 174.768,7.583C175.867,7.611 176.793,7.627 177.704,7.629L177.704,20.455Z" style="fill:rgb(90,64,44);fill-rule:nonzero;"/>
    </g>
    <g transform="matrix(4.16667,0,0,4.16667,-537,0)">
        <path d="M177.704,49.509C177.064,49.434 176.266,50.157 175.742,50.832C175.114,51.646 174.536,52.314 173.819,52.591C172.903,52.943 171.803,52.588 170.97,51.938C170.321,51.432 169.834,50.748 169.722,50.079C169.511,48.828 168.499,47.493 168.605,47.23C167.045,48.575 165.946,46.879 165.285,44.983C164.436,42.545 164.208,38.938 164.272,38.038C164.385,36.487 163.765,38.261 163.414,39.891C163.163,41.052 163.242,42.029 163.446,42.998C163.65,43.967 163.978,44.923 164.224,46.047C164.421,46.94 164.411,47.791 164.432,48.507C164.463,49.61 164.828,51.179 165.48,52.585C166.317,54.394 167.008,55.482 168.701,55.418C169.102,55.403 169.831,57.352 170.257,57.828C171.022,58.684 171.4,58.468 171.82,58.199C173.27,57.272 173.406,59.226 174.309,59.337C176.059,59.552 176.209,58.565 177.278,58.644C177.44,58.657 177.579,58.694 177.704,58.748L177.704,49.509Z" style="fill:rgb(90,64,44);fill-rule:nonzero;"/>
    </g>
    <g transform="matrix(4.16667,0,0,4.16667,-537,0)">
        <path d="M176.165,43.253C175.742,43.253 175.37,43.293 174.848,43.512C173.785,43.952 173.004,44.836 172.001,45.426C171.424,45.763 170.717,45.845 169.985,45.863C169.268,45.881 168.797,46.502 168.687,47.316C168.67,47.438 169.009,47.195 169.322,47.024C169.823,46.745 170.06,47.045 170.58,47.188C171.464,47.424 172.498,47.488 173.061,47.488C174.178,47.488 174.903,47.34 175.909,47.045C176.38,46.909 177.139,46.384 177.676,45.768L177.704,45.736L177.704,43.644C177.331,43.393 176.789,43.252 176.165,43.253Z" style="fill:rgb(90,64,44);fill-rule:nonzero;"/>
    </g>
</svg>
