<?xml version="1.0" encoding="UTF-8" standalone="no"?>
<!DOCTYPE svg PUBLIC "-//W3C//DTD SVG 1.1//EN" "http://www.w3.org/Graphics/SVG/1.1/DTD/svg11.dtd">
<svg width="100%" height="100%" viewBox="0 0 600 75" version="1.1" xmlns="http://www.w3.org/2000/svg" xmlns:xlink="http://www.w3.org/1999/xlink" xml:space="preserve" xmlns:serif="http://www.serif.com/" style="fill-rule:evenodd;clip-rule:evenodd;stroke-linejoin:round;stroke-miterlimit:2;">
    <g transform="matrix(1,0,0,1,-22,-284)">
        <g>
            <path d="M208,315.3L197.2,315.3L197.2,336.2C197.2,341.8 200.9,341.7 208,341.4L208,349.9C193.5,351.6 187.8,347.6 187.8,336.3L187.8,315.4L179.8,315.4L179.8,306.3L187.8,306.3L187.8,294.6L197.2,291.8L197.2,306.3L208,306.3L208,315.3ZM249.2,306.2L258.6,306.2L258.6,349.8L249.2,349.8L249.2,343.5C245.9,348.1 240.7,350.9 233.9,350.9C222,350.9 212.2,340.9 212.2,328C212.2,315 222.1,305.1 233.9,305.1C240.7,305.1 245.9,307.9 249.2,312.4L249.2,306.2ZM235.4,342C243.3,342 249.2,336.2 249.2,328C249.2,319.9 243.3,314 235.4,314C227.6,314 221.6,319.8 221.6,328C221.6,336.2 227.6,342 235.4,342ZM274.3,299.7C271,299.7 268.3,296.9 268.3,293.7C268.3,290.4 271,287.7 274.3,287.7C277.6,287.7 280.3,290.4 280.3,293.7C280.4,296.9 277.6,299.7 274.3,299.7ZM269.6,349.8L269.6,306.2L279,306.2L279,349.8L269.6,349.8ZM289.9,349.8L289.9,286.1L299.3,286.1L299.3,349.8L289.9,349.8ZM360.5,306.2L370.4,306.2L356.7,349.8L347.5,349.8L338.4,320.4L329.2,349.8L320,349.8L306.3,306.2L316.2,306.2L324.7,336.3L333.9,306.2L342.9,306.2L352,336.3L360.5,306.2ZM382.2,299.7C378.9,299.7 376.2,296.9 376.2,293.7C376.2,290.4 378.9,287.7 382.2,287.7C385.5,287.7 388.2,290.4 388.2,293.7C388.2,296.9 385.5,299.7 382.2,299.7ZM377.4,349.8L377.4,306.2L386.8,306.2L386.8,349.8L377.4,349.8ZM420.7,305.1C430.5,305.1 437.5,311.7 437.5,323.1L437.5,349.9L428.1,349.9L428.1,324C428.1,317.4 424.3,313.9 418.3,313.9C412.1,313.9 407.2,317.6 407.2,326.5L407.2,349.9L397.8,349.9L397.8,306.3L407.2,306.3L407.2,311.9C410.1,307.3 414.8,305.1 420.7,305.1ZM482.1,288.8L491.5,288.8L491.5,349.9L482.1,349.9L482.1,343.6C478.8,348.2 473.6,351 466.8,351C454.9,351 445.1,341 445.1,328.1C445.1,315.1 455,305.2 466.8,305.2C473.6,305.2 478.8,308 482.1,312.5L482.1,288.8ZM468.4,342C476.3,342 482.2,336.2 482.2,328C482.2,319.9 476.3,314 468.4,314C460.6,314 454.6,319.8 454.6,328C454.6,336.2 460.5,342 468.4,342ZM523.1,351C509.9,351 500.1,341 500.1,328.1C500.1,315.1 510,305.2 523.1,305.2C531.7,305.2 539.1,309.6 542.6,316.5L534.5,321.2C532.6,317.1 528.3,314.5 523.1,314.5C515.4,314.5 509.6,320.3 509.6,328.2C509.6,336.1 515.4,341.9 523.1,341.9C528.3,341.9 532.6,339.2 534.7,335.2L542.8,339.8C539.1,346.5 531.7,351 523.1,351ZM558.3,318.3C558.3,326.2 581.8,321.4 581.8,337.6C581.8,346.3 574.2,351 564.8,351C556.1,351 549.8,347.1 547,340.8L555.1,336.1C556.5,340 560,342.4 564.8,342.4C569,342.4 572.2,341 572.2,337.5C572.2,329.7 548.7,334.1 548.7,318.5C548.7,310.3 555.8,305.2 564.7,305.2C571.9,305.2 577.8,308.5 580.8,314.3L572.9,318.7C571.3,315.3 568.3,313.7 564.7,313.7C561.3,313.6 558.3,315.1 558.3,318.3ZM598.5,318.3C598.5,326.2 622,321.4 622,337.6C622,346.3 614.4,351 605,351C596.3,351 590,347.1 587.2,340.8L595.3,336.1C596.7,340 600.2,342.4 605,342.4C609.2,342.4 612.4,341 612.4,337.5C612.4,329.7 588.9,334.1 588.9,318.5C588.9,310.3 596,305.2 604.9,305.2C612.1,305.2 618,308.5 621,314.3L613.1,318.7C611.5,315.3 608.5,313.7 604.9,313.7C601.5,313.6 598.5,315.1 598.5,318.3Z"/>
            <path d="M84,284C67.5,284 57.1,292.3 53,308.8C59.2,300.5 66.4,297.4 74.7,299.5C79.4,300.7 82.8,304.1 86.5,307.9C92.6,314.1 99.6,321.2 115,321.2C131.5,321.2 141.9,312.9 146,296.4C139.8,304.7 132.6,307.8 124.3,305.7C119.6,304.5 116.2,301.1 112.5,297.3C106.4,291.1 99.4,284 84,284ZM53,321.1C36.5,321.1 26.1,329.4 22,345.9C28.2,337.6 35.4,334.5 43.7,336.6C48.4,337.8 51.8,341.2 55.5,345C61.6,351.2 68.6,358.3 84,358.3C100.5,358.3 110.9,350 115,333.5C108.8,341.8 101.6,344.9 93.3,342.8C88.6,341.6 85.2,338.2 81.5,334.4C75.4,328.3 68.4,321.1 53,321.1Z" style="fill:rgb(6,182,212);"/>
        </g>
    </g>
</svg>
